<mxfile host="app.diagrams.net" modified="2023-04-15T16:12:57.160Z" agent="Mozilla/5.0 (Windows NT 10.0; Win64; x64) AppleWebKit/537.36 (KHTML, like Gecko) Chrome/112.0.0.0 Safari/537.36" etag="V9P8CVcmYnCa49aQTfP6" version="21.1.7" type="device" pages="3">
  <diagram name="Microservices Testing" id="JK1hLLfRfnbldbWE0ELE">
    <mxGraphModel dx="1434" dy="763" grid="0" gridSize="10" guides="1" tooltips="1" connect="1" arrows="1" fold="1" page="1" pageScale="1" pageWidth="850" pageHeight="1100" math="0" shadow="0">
      <root>
        <mxCell id="0" />
        <mxCell id="1" parent="0" />
        <mxCell id="3uR0zrk3g5gVDk2hLhBI-1" value="&lt;p class=&quot;graf graf--p&quot; name=&quot;955c&quot;&gt;&lt;strong class=&quot;markup--strong markup--p-strong&quot;&gt;&lt;font style=&quot;font-size: 21px;&quot;&gt;Service Integration Contract Testing&lt;/font&gt;&lt;/strong&gt;&lt;/p&gt;" style="ellipse;whiteSpace=wrap;html=1;aspect=fixed;fillColor=#d5e8d4;strokeColor=#82b366;" parent="1" vertex="1">
          <mxGeometry x="530" y="90" width="160" height="160" as="geometry" />
        </mxCell>
        <mxCell id="3uR0zrk3g5gVDk2hLhBI-2" value="&lt;font style=&quot;font-size: 21px;&quot;&gt;&lt;b&gt;Service Component Testing&lt;/b&gt;&lt;/font&gt;" style="ellipse;whiteSpace=wrap;html=1;aspect=fixed;fillColor=#dae8fc;strokeColor=#6c8ebf;" parent="1" vertex="1">
          <mxGeometry x="279" y="20" width="160" height="160" as="geometry" />
        </mxCell>
        <mxCell id="3uR0zrk3g5gVDk2hLhBI-3" value="&lt;p class=&quot;graf graf--p&quot; name=&quot;59b5&quot;&gt;&lt;strong class=&quot;markup--strong markup--p-strong&quot;&gt;&lt;font style=&quot;font-size: 21px;&quot;&gt;Consumer Driven&amp;nbsp;&lt;/font&gt;&lt;/strong&gt;&lt;strong style=&quot;background-color: initial;&quot; class=&quot;markup--strong markup--p-strong&quot;&gt;&lt;font style=&quot;font-size: 21px;&quot;&gt;Contract Testing&lt;/font&gt;&lt;/strong&gt;&lt;/p&gt;" style="ellipse;whiteSpace=wrap;html=1;aspect=fixed;fillColor=#fff2cc;strokeColor=#d6b656;" parent="1" vertex="1">
          <mxGeometry x="540" y="520" width="160" height="160" as="geometry" />
        </mxCell>
        <mxCell id="3uR0zrk3g5gVDk2hLhBI-4" value="&lt;p class=&quot;graf graf--p&quot; name=&quot;4623&quot;&gt;&lt;strong class=&quot;markup--strong markup--p-strong&quot;&gt;&lt;font style=&quot;font-size: 21px;&quot;&gt;Consumer-Side Contract Testing&lt;/font&gt;&lt;/strong&gt;&lt;/p&gt;" style="ellipse;whiteSpace=wrap;html=1;aspect=fixed;fillColor=#e1d5e7;strokeColor=#9673a6;" parent="1" vertex="1">
          <mxGeometry x="280" y="600" width="160" height="160" as="geometry" />
        </mxCell>
        <mxCell id="3uR0zrk3g5gVDk2hLhBI-6" value="&lt;font style=&quot;font-size: 21px;&quot;&gt;&lt;b&gt;Microservices Testing&lt;/b&gt;&lt;/font&gt;" style="ellipse;whiteSpace=wrap;html=1;fillColor=#f8cecc;strokeColor=#b85450;" parent="1" vertex="1">
          <mxGeometry x="190" y="392" width="320" height="78" as="geometry" />
        </mxCell>
        <mxCell id="3uR0zrk3g5gVDk2hLhBI-7" value="" style="endArrow=classic;html=1;rounded=0;fillColor=#dae8fc;strokeColor=#6c8ebf;" parent="1" edge="1">
          <mxGeometry width="50" height="50" relative="1" as="geometry">
            <mxPoint x="359" y="390" as="sourcePoint" />
            <mxPoint x="359" y="180" as="targetPoint" />
          </mxGeometry>
        </mxCell>
        <mxCell id="3uR0zrk3g5gVDk2hLhBI-8" value="" style="endArrow=classic;html=1;rounded=0;fillColor=#d5e8d4;strokeColor=#82b366;" parent="1" target="3uR0zrk3g5gVDk2hLhBI-1" edge="1">
          <mxGeometry width="50" height="50" relative="1" as="geometry">
            <mxPoint x="475" y="406" as="sourcePoint" />
            <mxPoint x="571.96" y="261.44000000000005" as="targetPoint" />
          </mxGeometry>
        </mxCell>
        <mxCell id="3uR0zrk3g5gVDk2hLhBI-9" value="" style="endArrow=classic;html=1;rounded=0;fillColor=#e1d5e7;strokeColor=#9673a6;" parent="1" target="3uR0zrk3g5gVDk2hLhBI-4" edge="1">
          <mxGeometry width="50" height="50" relative="1" as="geometry">
            <mxPoint x="360" y="470" as="sourcePoint" />
            <mxPoint x="570" y="440" as="targetPoint" />
          </mxGeometry>
        </mxCell>
        <mxCell id="3uR0zrk3g5gVDk2hLhBI-10" value="" style="endArrow=classic;html=1;rounded=0;fillColor=#fff2cc;strokeColor=#d6b656;entryX=0.006;entryY=0.316;entryDx=0;entryDy=0;entryPerimeter=0;" parent="1" edge="1">
          <mxGeometry width="50" height="50" relative="1" as="geometry">
            <mxPoint x="468" y="459" as="sourcePoint" />
            <mxPoint x="548.96" y="569.56" as="targetPoint" />
          </mxGeometry>
        </mxCell>
        <mxCell id="3uR0zrk3g5gVDk2hLhBI-11" value="&lt;p class=&quot;graf graf--p&quot; name=&quot;ac41&quot;&gt;&lt;strong class=&quot;markup--strong markup--p-strong&quot;&gt;&lt;font style=&quot;font-size: 21px;&quot;&gt;Mike Cohn Test Pyramid&lt;/font&gt;&lt;/strong&gt;&lt;/p&gt;" style="rounded=0;whiteSpace=wrap;html=1;fillColor=#bac8d3;strokeColor=#23445d;" parent="1" vertex="1">
          <mxGeometry x="30" y="780" width="706" height="60" as="geometry" />
        </mxCell>
        <mxCell id="3uR0zrk3g5gVDk2hLhBI-14" value="&lt;p class=&quot;graf graf--p&quot; name=&quot;59b5&quot;&gt;&lt;span style=&quot;font-size: 21px;&quot;&gt;&lt;b&gt;Chaos Monkey Testing&lt;/b&gt;&lt;/span&gt;&lt;/p&gt;" style="ellipse;whiteSpace=wrap;html=1;aspect=fixed;fillColor=#b0e3e6;strokeColor=#0e8088;" parent="1" vertex="1">
          <mxGeometry x="47" y="100" width="160" height="160" as="geometry" />
        </mxCell>
        <mxCell id="3uR0zrk3g5gVDk2hLhBI-15" value="" style="endArrow=classic;html=1;rounded=0;exitX=0.191;exitY=0.096;exitDx=0;exitDy=0;fillColor=#b1ddf0;strokeColor=#10739e;exitPerimeter=0;entryX=0.619;entryY=1.003;entryDx=0;entryDy=0;entryPerimeter=0;" parent="1" source="3uR0zrk3g5gVDk2hLhBI-6" target="3uR0zrk3g5gVDk2hLhBI-14" edge="1">
          <mxGeometry width="50" height="50" relative="1" as="geometry">
            <mxPoint x="430" y="760" as="sourcePoint" />
            <mxPoint x="150" y="270" as="targetPoint" />
          </mxGeometry>
        </mxCell>
        <mxCell id="3uR0zrk3g5gVDk2hLhBI-16" value="&lt;p class=&quot;graf graf--p&quot; name=&quot;59b5&quot;&gt;&lt;strong style=&quot;background-color: initial;&quot; class=&quot;markup--strong markup--p-strong&quot;&gt;&lt;font style=&quot;font-size: 21px;&quot;&gt;Security Testing&lt;/font&gt;&lt;/strong&gt;&lt;/p&gt;" style="ellipse;whiteSpace=wrap;html=1;aspect=fixed;fillColor=#b1ddf0;strokeColor=#10739e;" parent="1" vertex="1">
          <mxGeometry x="40" y="520" width="160" height="160" as="geometry" />
        </mxCell>
        <mxCell id="3uR0zrk3g5gVDk2hLhBI-17" value="" style="endArrow=classic;html=1;rounded=0;fillColor=#b1ddf0;strokeColor=#10739e;" parent="1" edge="1">
          <mxGeometry width="50" height="50" relative="1" as="geometry">
            <mxPoint x="250" y="460" as="sourcePoint" />
            <mxPoint x="190" y="560" as="targetPoint" />
          </mxGeometry>
        </mxCell>
      </root>
    </mxGraphModel>
  </diagram>
  <diagram id="hJLk7sGYebD7ID1PFhLz" name="Designing Data Intensive Microservices">
    <mxGraphModel dx="1434" dy="763" grid="0" gridSize="10" guides="1" tooltips="1" connect="1" arrows="1" fold="1" page="1" pageScale="1" pageWidth="850" pageHeight="1100" math="0" shadow="0">
      <root>
        <mxCell id="0" />
        <mxCell id="1" parent="0" />
        <mxCell id="NN4CmU90Rl8JpEohiqoj-1" value="&lt;p class=&quot;graf graf--p&quot;&gt;&lt;strong class=&quot;markup--strong markup--p-strong&quot;&gt;&lt;font style=&quot;font-size: 16px;&quot;&gt;Choosing the Database Technology&lt;/font&gt;&lt;/strong&gt;&lt;/p&gt;" style="rounded=1;whiteSpace=wrap;html=1;fillColor=#ffe6cc;strokeColor=#d79b00;" parent="1" vertex="1">
          <mxGeometry x="7" y="420" width="336" height="60" as="geometry" />
        </mxCell>
        <mxCell id="NN4CmU90Rl8JpEohiqoj-2" value="&lt;p class=&quot;graf graf--p&quot;&gt;&lt;strong class=&quot;markup--strong markup--p-strong&quot;&gt;&lt;font style=&quot;font-size: 16px;&quot;&gt;Database Schema Design&lt;/font&gt;&lt;/strong&gt;&lt;/p&gt;" style="rounded=1;whiteSpace=wrap;html=1;fillColor=#dae8fc;strokeColor=#6c8ebf;" parent="1" vertex="1">
          <mxGeometry x="103" y="496" width="313" height="60" as="geometry" />
        </mxCell>
        <mxCell id="NN4CmU90Rl8JpEohiqoj-3" value="&lt;p class=&quot;graf graf--p&quot;&gt;&lt;strong class=&quot;markup--strong markup--p-strong&quot;&gt;&lt;font style=&quot;font-size: 16px;&quot;&gt;Choosing the Messaging Technology&lt;/font&gt;&lt;/strong&gt;&lt;/p&gt;" style="rounded=1;whiteSpace=wrap;html=1;fillColor=#b1ddf0;strokeColor=#10739e;" parent="1" vertex="1">
          <mxGeometry x="409" y="801" width="309" height="60" as="geometry" />
        </mxCell>
        <mxCell id="NN4CmU90Rl8JpEohiqoj-4" value="&lt;p class=&quot;graf graf--p&quot;&gt;&lt;strong class=&quot;markup--strong markup--p-strong&quot;&gt;&lt;font style=&quot;font-size: 16px;&quot;&gt;Continuous monitoring and optimization&lt;/font&gt;&lt;/strong&gt;&lt;/p&gt;" style="rounded=1;whiteSpace=wrap;html=1;fillColor=#d0cee2;strokeColor=#56517e;" parent="1" vertex="1">
          <mxGeometry x="478" y="880" width="319" height="60" as="geometry" />
        </mxCell>
        <mxCell id="NN4CmU90Rl8JpEohiqoj-5" value="&lt;p class=&quot;graf graf--p&quot;&gt;&lt;strong class=&quot;markup--strong markup--p-strong&quot;&gt;&lt;font style=&quot;font-size: 16px;&quot;&gt;Implementing Pagination at the API Layer&lt;/font&gt;&lt;/strong&gt;&lt;/p&gt;" style="rounded=1;whiteSpace=wrap;html=1;fillColor=#f5f5f5;fontColor=#333333;strokeColor=#666666;" parent="1" vertex="1">
          <mxGeometry x="334" y="724" width="339" height="60" as="geometry" />
        </mxCell>
        <mxCell id="NN4CmU90Rl8JpEohiqoj-6" value="&lt;p style=&quot;font-size: 16px;&quot; class=&quot;graf graf--p&quot;&gt;&lt;strong class=&quot;markup--strong markup--p-strong&quot;&gt;C&lt;/strong&gt;&lt;strong style=&quot;background-color: initial;&quot; class=&quot;markup--strong markup--p-strong&quot;&gt;hoosing the Data Access Pattern&lt;/strong&gt;&lt;/p&gt;" style="rounded=1;whiteSpace=wrap;html=1;fillColor=#fff2cc;strokeColor=#d6b656;" parent="1" vertex="1">
          <mxGeometry x="170" y="571" width="310" height="60" as="geometry" />
        </mxCell>
        <mxCell id="NN4CmU90Rl8JpEohiqoj-7" value="&lt;p class=&quot;graf graf--p&quot;&gt;&lt;strong class=&quot;markup--strong markup--p-strong&quot;&gt;&lt;font style=&quot;font-size: 16px;&quot;&gt;Caching Mechanisms&lt;/font&gt;&lt;/strong&gt;&lt;/p&gt;" style="rounded=1;whiteSpace=wrap;html=1;fillColor=#e1d5e7;strokeColor=#9673a6;" parent="1" vertex="1">
          <mxGeometry x="241" y="649" width="313" height="60" as="geometry" />
        </mxCell>
        <mxCell id="NN4CmU90Rl8JpEohiqoj-17" value="&lt;b&gt;&lt;font style=&quot;font-size: 21px;&quot;&gt;Designing Data Intensive Microservices&lt;/font&gt;&lt;/b&gt;" style="text;html=1;strokeColor=none;fillColor=none;align=center;verticalAlign=middle;whiteSpace=wrap;rounded=0;" parent="1" vertex="1">
          <mxGeometry x="226" y="340" width="450" height="30" as="geometry" />
        </mxCell>
        <mxCell id="gAsxpCPafFvMcp0irV0t-3" value="&lt;font style=&quot;font-size: 16px;&quot;&gt;&lt;b&gt;1&lt;/b&gt;&lt;/font&gt;" style="ellipse;whiteSpace=wrap;html=1;aspect=fixed;" parent="1" vertex="1">
          <mxGeometry x="355" y="428" width="40" height="40" as="geometry" />
        </mxCell>
        <mxCell id="gAsxpCPafFvMcp0irV0t-4" value="&lt;font style=&quot;font-size: 16px;&quot;&gt;&lt;b&gt;2&lt;/b&gt;&lt;/font&gt;" style="ellipse;whiteSpace=wrap;html=1;aspect=fixed;" parent="1" vertex="1">
          <mxGeometry x="427" y="506" width="40" height="40" as="geometry" />
        </mxCell>
        <mxCell id="gAsxpCPafFvMcp0irV0t-5" value="&lt;span style=&quot;font-size: 16px;&quot;&gt;&lt;b&gt;3&lt;/b&gt;&lt;/span&gt;" style="ellipse;whiteSpace=wrap;html=1;aspect=fixed;" parent="1" vertex="1">
          <mxGeometry x="496" y="581" width="40" height="40" as="geometry" />
        </mxCell>
        <mxCell id="gAsxpCPafFvMcp0irV0t-6" value="&lt;span style=&quot;font-size: 16px;&quot;&gt;&lt;b&gt;4&lt;/b&gt;&lt;/span&gt;" style="ellipse;whiteSpace=wrap;html=1;aspect=fixed;" parent="1" vertex="1">
          <mxGeometry x="568" y="659" width="40" height="40" as="geometry" />
        </mxCell>
        <mxCell id="gAsxpCPafFvMcp0irV0t-8" value="&lt;span style=&quot;font-size: 16px;&quot;&gt;&lt;b&gt;5&lt;/b&gt;&lt;/span&gt;" style="ellipse;whiteSpace=wrap;html=1;aspect=fixed;" parent="1" vertex="1">
          <mxGeometry x="680" y="731" width="40" height="40" as="geometry" />
        </mxCell>
        <mxCell id="gAsxpCPafFvMcp0irV0t-10" value="&lt;span style=&quot;font-size: 16px;&quot;&gt;&lt;b&gt;6&lt;/b&gt;&lt;/span&gt;" style="ellipse;whiteSpace=wrap;html=1;aspect=fixed;" parent="1" vertex="1">
          <mxGeometry x="727" y="811" width="40" height="40" as="geometry" />
        </mxCell>
        <mxCell id="gAsxpCPafFvMcp0irV0t-11" value="&lt;span style=&quot;font-size: 16px;&quot;&gt;&lt;b&gt;7&lt;/b&gt;&lt;/span&gt;" style="ellipse;whiteSpace=wrap;html=1;aspect=fixed;" parent="1" vertex="1">
          <mxGeometry x="807" y="888" width="40" height="40" as="geometry" />
        </mxCell>
      </root>
    </mxGraphModel>
  </diagram>
  <diagram id="_tOpoa5pF5qrZYZJRsvB" name="Zero Trust Security">
    <mxGraphModel dx="1434" dy="729" grid="1" gridSize="10" guides="1" tooltips="1" connect="1" arrows="1" fold="1" page="1" pageScale="1" pageWidth="850" pageHeight="1100" math="0" shadow="0">
      <root>
        <mxCell id="0" />
        <mxCell id="1" parent="0" />
        <mxCell id="YdtJJswMT3u1q-X6oPRN-39" value="" style="rounded=0;whiteSpace=wrap;html=1;dashed=1;" vertex="1" parent="1">
          <mxGeometry x="580" y="160" width="620" height="550" as="geometry" />
        </mxCell>
        <mxCell id="YdtJJswMT3u1q-X6oPRN-69" value="" style="rounded=0;whiteSpace=wrap;html=1;" vertex="1" parent="1">
          <mxGeometry x="710" y="260" width="300" height="250" as="geometry" />
        </mxCell>
        <mxCell id="YdtJJswMT3u1q-X6oPRN-1" value="User" style="image;aspect=fixed;perimeter=ellipsePerimeter;html=1;align=center;shadow=0;dashed=0;spacingTop=3;image=img/lib/active_directory/user_accounts.svg;" vertex="1" parent="1">
          <mxGeometry x="370" y="363" width="50" height="48.5" as="geometry" />
        </mxCell>
        <mxCell id="YdtJJswMT3u1q-X6oPRN-25" value="API Gateway" style="rounded=0;whiteSpace=wrap;html=1;fillColor=#d0cee2;strokeColor=#56517e;" vertex="1" parent="1">
          <mxGeometry x="620" y="270" width="60" height="240" as="geometry" />
        </mxCell>
        <mxCell id="YdtJJswMT3u1q-X6oPRN-26" value="Authentication and Authorization&amp;nbsp;" style="rounded=0;whiteSpace=wrap;html=1;fillColor=#f8cecc;strokeColor=#b85450;" vertex="1" parent="1">
          <mxGeometry x="620" y="186" width="545" height="53" as="geometry" />
        </mxCell>
        <mxCell id="YdtJJswMT3u1q-X6oPRN-28" value="Container Orchestrator" style="rounded=0;whiteSpace=wrap;html=1;fillColor=#b0e3e6;strokeColor=#0e8088;" vertex="1" parent="1">
          <mxGeometry x="722" y="439" width="280" height="60" as="geometry" />
        </mxCell>
        <mxCell id="YdtJJswMT3u1q-X6oPRN-29" value="Microservices 2" style="rounded=0;whiteSpace=wrap;html=1;fillColor=#b0e3e6;strokeColor=#0e8088;" vertex="1" parent="1">
          <mxGeometry x="722" y="360" width="120" height="60" as="geometry" />
        </mxCell>
        <mxCell id="YdtJJswMT3u1q-X6oPRN-30" value="Microservices 1" style="rounded=0;whiteSpace=wrap;html=1;fillColor=#b0e3e6;strokeColor=#0e8088;" vertex="1" parent="1">
          <mxGeometry x="722" y="270" width="120" height="60" as="geometry" />
        </mxCell>
        <mxCell id="YdtJJswMT3u1q-X6oPRN-31" value="Microservices n" style="rounded=0;whiteSpace=wrap;html=1;fillColor=#b0e3e6;strokeColor=#0e8088;" vertex="1" parent="1">
          <mxGeometry x="882" y="360" width="120" height="60" as="geometry" />
        </mxCell>
        <mxCell id="YdtJJswMT3u1q-X6oPRN-32" value="Microservices 3" style="rounded=0;whiteSpace=wrap;html=1;fillColor=#b0e3e6;strokeColor=#0e8088;" vertex="1" parent="1">
          <mxGeometry x="882" y="270" width="120" height="60" as="geometry" />
        </mxCell>
        <mxCell id="YdtJJswMT3u1q-X6oPRN-33" value="Key Management" style="rounded=0;whiteSpace=wrap;html=1;fillColor=#dae8fc;strokeColor=#6c8ebf;" vertex="1" parent="1">
          <mxGeometry x="1045" y="270" width="120" height="60" as="geometry" />
        </mxCell>
        <mxCell id="YdtJJswMT3u1q-X6oPRN-34" value="Key Vault" style="rounded=0;whiteSpace=wrap;html=1;fillColor=#dae8fc;strokeColor=#6c8ebf;" vertex="1" parent="1">
          <mxGeometry x="1044" y="359" width="120" height="60" as="geometry" />
        </mxCell>
        <mxCell id="YdtJJswMT3u1q-X6oPRN-36" value="Runtime Assessment" style="rounded=0;whiteSpace=wrap;html=1;fillColor=#ffe6cc;strokeColor=#d79b00;" vertex="1" parent="1">
          <mxGeometry x="617.5" y="583" width="550" height="32" as="geometry" />
        </mxCell>
        <mxCell id="YdtJJswMT3u1q-X6oPRN-35" value="Container Registry" style="rounded=0;whiteSpace=wrap;html=1;fillColor=#fff2cc;strokeColor=#d6b656;" vertex="1" parent="1">
          <mxGeometry x="1045" y="450" width="120" height="60" as="geometry" />
        </mxCell>
        <mxCell id="YdtJJswMT3u1q-X6oPRN-42" value="" style="endArrow=classic;html=1;rounded=0;entryX=0;entryY=0.5;entryDx=0;entryDy=0;" edge="1" parent="1" target="YdtJJswMT3u1q-X6oPRN-25">
          <mxGeometry width="50" height="50" relative="1" as="geometry">
            <mxPoint x="420" y="390" as="sourcePoint" />
            <mxPoint x="780" y="430" as="targetPoint" />
          </mxGeometry>
        </mxCell>
        <mxCell id="YdtJJswMT3u1q-X6oPRN-43" value="" style="outlineConnect=0;dashed=0;verticalLabelPosition=bottom;verticalAlign=top;align=center;html=1;shape=mxgraph.aws3.ec2_compute_container;fillColor=#F58534;gradientColor=none;" vertex="1" parent="1">
          <mxGeometry x="786" y="310" width="50" height="14" as="geometry" />
        </mxCell>
        <mxCell id="YdtJJswMT3u1q-X6oPRN-44" value="" style="outlineConnect=0;dashed=0;verticalLabelPosition=bottom;verticalAlign=top;align=center;html=1;shape=mxgraph.aws3.ec2_compute_container;fillColor=#F58534;gradientColor=none;" vertex="1" parent="1">
          <mxGeometry x="948" y="310" width="50" height="14" as="geometry" />
        </mxCell>
        <mxCell id="YdtJJswMT3u1q-X6oPRN-45" value="" style="outlineConnect=0;dashed=0;verticalLabelPosition=bottom;verticalAlign=top;align=center;html=1;shape=mxgraph.aws3.ec2_compute_container;fillColor=#F58534;gradientColor=none;" vertex="1" parent="1">
          <mxGeometry x="786" y="402" width="50" height="14" as="geometry" />
        </mxCell>
        <mxCell id="YdtJJswMT3u1q-X6oPRN-46" value="" style="outlineConnect=0;dashed=0;verticalLabelPosition=bottom;verticalAlign=top;align=center;html=1;shape=mxgraph.aws3.ec2_compute_container;fillColor=#F58534;gradientColor=none;" vertex="1" parent="1">
          <mxGeometry x="944" y="402" width="50" height="14" as="geometry" />
        </mxCell>
        <mxCell id="YdtJJswMT3u1q-X6oPRN-47" value="" style="sketch=0;points=[[0,0,0],[0.25,0,0],[0.5,0,0],[0.75,0,0],[1,0,0],[0,1,0],[0.25,1,0],[0.5,1,0],[0.75,1,0],[1,1,0],[0,0.25,0],[0,0.5,0],[0,0.75,0],[1,0.25,0],[1,0.5,0],[1,0.75,0]];outlineConnect=0;fontColor=#232F3E;gradientColor=#F78E04;gradientDirection=north;fillColor=#D05C17;strokeColor=#ffffff;dashed=0;verticalLabelPosition=bottom;verticalAlign=top;align=center;html=1;fontSize=12;fontStyle=0;aspect=fixed;shape=mxgraph.aws4.resourceIcon;resIcon=mxgraph.aws4.eks;" vertex="1" parent="1">
          <mxGeometry x="970" y="466" width="28" height="28" as="geometry" />
        </mxCell>
        <mxCell id="YdtJJswMT3u1q-X6oPRN-48" value="" style="sketch=0;points=[[0,0,0],[0.25,0,0],[0.5,0,0],[0.75,0,0],[1,0,0],[0,1,0],[0.25,1,0],[0.5,1,0],[0.75,1,0],[1,1,0],[0,0.25,0],[0,0.5,0],[0,0.75,0],[1,0.25,0],[1,0.5,0],[1,0.75,0]];outlineConnect=0;fontColor=#232F3E;gradientColor=#F54749;gradientDirection=north;fillColor=#C7131F;strokeColor=#ffffff;dashed=0;verticalLabelPosition=bottom;verticalAlign=top;align=center;html=1;fontSize=12;fontStyle=0;aspect=fixed;shape=mxgraph.aws4.resourceIcon;resIcon=mxgraph.aws4.key_management_service;" vertex="1" parent="1">
          <mxGeometry x="1140" y="306" width="20" height="20" as="geometry" />
        </mxCell>
        <mxCell id="YdtJJswMT3u1q-X6oPRN-49" value="" style="sketch=0;points=[[0,0,0],[0.25,0,0],[0.5,0,0],[0.75,0,0],[1,0,0],[0,1,0],[0.25,1,0],[0.5,1,0],[0.75,1,0],[1,1,0],[0,0.25,0],[0,0.5,0],[0,0.75,0],[1,0.25,0],[1,0.5,0],[1,0.75,0]];outlineConnect=0;fontColor=#232F3E;gradientColor=#FF4F8B;gradientDirection=north;fillColor=#BC1356;strokeColor=#ffffff;dashed=0;verticalLabelPosition=bottom;verticalAlign=top;align=center;html=1;fontSize=12;fontStyle=0;aspect=fixed;shape=mxgraph.aws4.resourceIcon;resIcon=mxgraph.aws4.api_gateway;" vertex="1" parent="1">
          <mxGeometry x="655" y="484" width="20" height="20" as="geometry" />
        </mxCell>
        <mxCell id="YdtJJswMT3u1q-X6oPRN-50" value="" style="sketch=0;points=[[0,0,0],[0.25,0,0],[0.5,0,0],[0.75,0,0],[1,0,0],[0,1,0],[0.25,1,0],[0.5,1,0],[0.75,1,0],[1,1,0],[0,0.25,0],[0,0.5,0],[0,0.75,0],[1,0.25,0],[1,0.5,0],[1,0.75,0]];outlineConnect=0;fontColor=#232F3E;gradientColor=#F54749;gradientDirection=north;fillColor=#C7131F;strokeColor=#ffffff;dashed=0;verticalLabelPosition=bottom;verticalAlign=top;align=center;html=1;fontSize=12;fontStyle=0;aspect=fixed;shape=mxgraph.aws4.resourceIcon;resIcon=mxgraph.aws4.secrets_manager;" vertex="1" parent="1">
          <mxGeometry x="1140" y="394" width="20" height="20" as="geometry" />
        </mxCell>
        <mxCell id="YdtJJswMT3u1q-X6oPRN-51" value="" style="outlineConnect=0;dashed=0;verticalLabelPosition=bottom;verticalAlign=top;align=center;html=1;shape=mxgraph.aws3.ecr_registry;fillColor=#F58534;gradientColor=none;" vertex="1" parent="1">
          <mxGeometry x="1141" y="487" width="20" height="20" as="geometry" />
        </mxCell>
        <mxCell id="YdtJJswMT3u1q-X6oPRN-52" value="" style="outlineConnect=0;dashed=0;verticalLabelPosition=bottom;verticalAlign=top;align=center;html=1;shape=mxgraph.aws3.iam;fillColor=#759C3E;gradientColor=none;" vertex="1" parent="1">
          <mxGeometry x="1136" y="210" width="20" height="21" as="geometry" />
        </mxCell>
        <mxCell id="YdtJJswMT3u1q-X6oPRN-54" value="Obervability" style="rounded=0;whiteSpace=wrap;html=1;fillColor=#b1ddf0;strokeColor=#10739e;" vertex="1" parent="1">
          <mxGeometry x="618.5" y="627" width="550" height="40" as="geometry" />
        </mxCell>
        <mxCell id="YdtJJswMT3u1q-X6oPRN-55" value="" style="sketch=0;points=[[0,0,0],[0.25,0,0],[0.5,0,0],[0.75,0,0],[1,0,0],[0,1,0],[0.25,1,0],[0.5,1,0],[0.75,1,0],[1,1,0],[0,0.25,0],[0,0.5,0],[0,0.75,0],[1,0.25,0],[1,0.5,0],[1,0.75,0]];points=[[0,0,0],[0.25,0,0],[0.5,0,0],[0.75,0,0],[1,0,0],[0,1,0],[0.25,1,0],[0.5,1,0],[0.75,1,0],[1,1,0],[0,0.25,0],[0,0.5,0],[0,0.75,0],[1,0.25,0],[1,0.5,0],[1,0.75,0]];outlineConnect=0;fontColor=#232F3E;gradientColor=#F34482;gradientDirection=north;fillColor=#BC1356;strokeColor=#ffffff;dashed=0;verticalLabelPosition=bottom;verticalAlign=top;align=center;html=1;fontSize=12;fontStyle=0;aspect=fixed;shape=mxgraph.aws4.resourceIcon;resIcon=mxgraph.aws4.cloudwatch_2;" vertex="1" parent="1">
          <mxGeometry x="1134" y="635" width="24" height="24" as="geometry" />
        </mxCell>
        <mxCell id="YdtJJswMT3u1q-X6oPRN-56" value="" style="sketch=0;points=[[0,0,0],[0.25,0,0],[0.5,0,0],[0.75,0,0],[1,0,0],[0,1,0],[0.25,1,0],[0.5,1,0],[0.75,1,0],[1,1,0],[0,0.25,0],[0,0.5,0],[0,0.75,0],[1,0.25,0],[1,0.5,0],[1,0.75,0]];outlineConnect=0;fontColor=#232F3E;gradientColor=#4D72F3;gradientDirection=north;fillColor=#3334B9;strokeColor=#ffffff;dashed=0;verticalLabelPosition=bottom;verticalAlign=top;align=center;html=1;fontSize=12;fontStyle=0;aspect=fixed;shape=mxgraph.aws4.resourceIcon;resIcon=mxgraph.aws4.xray;" vertex="1" parent="1">
          <mxGeometry x="1099" y="635" width="25" height="25" as="geometry" />
        </mxCell>
        <mxCell id="YdtJJswMT3u1q-X6oPRN-57" value="" style="outlineConnect=0;dashed=0;verticalLabelPosition=bottom;verticalAlign=top;align=center;html=1;shape=mxgraph.aws3.role;fillColor=#759C3E;gradientColor=none;" vertex="1" parent="1">
          <mxGeometry x="1104" y="213" width="20" height="20" as="geometry" />
        </mxCell>
        <mxCell id="YdtJJswMT3u1q-X6oPRN-60" value="&lt;b&gt;Cloud Provider&lt;/b&gt;" style="text;html=1;strokeColor=none;fillColor=none;align=center;verticalAlign=middle;whiteSpace=wrap;rounded=0;" vertex="1" parent="1">
          <mxGeometry x="836" y="675" width="148" height="30" as="geometry" />
        </mxCell>
        <mxCell id="YdtJJswMT3u1q-X6oPRN-61" value="File System" style="rounded=0;whiteSpace=wrap;html=1;fillColor=#cdeb8b;strokeColor=#36393d;" vertex="1" parent="1">
          <mxGeometry x="906" y="530" width="261" height="40" as="geometry" />
        </mxCell>
        <mxCell id="YdtJJswMT3u1q-X6oPRN-63" value="Database" style="rounded=0;whiteSpace=wrap;html=1;fillColor=#ffff88;strokeColor=#36393d;" vertex="1" parent="1">
          <mxGeometry x="617.5" y="530" width="262.5" height="40" as="geometry" />
        </mxCell>
        <mxCell id="YdtJJswMT3u1q-X6oPRN-64" value="" style="sketch=0;points=[[0,0,0],[0.25,0,0],[0.5,0,0],[0.75,0,0],[1,0,0],[0,1,0],[0.25,1,0],[0.5,1,0],[0.75,1,0],[1,1,0],[0,0.25,0],[0,0.5,0],[0,0.75,0],[1,0.25,0],[1,0.5,0],[1,0.75,0]];outlineConnect=0;fontColor=#232F3E;gradientColor=#4D72F3;gradientDirection=north;fillColor=#3334B9;strokeColor=#ffffff;dashed=0;verticalLabelPosition=bottom;verticalAlign=top;align=center;html=1;fontSize=12;fontStyle=0;aspect=fixed;shape=mxgraph.aws4.resourceIcon;resIcon=mxgraph.aws4.rds;" vertex="1" parent="1">
          <mxGeometry x="850" y="537" width="20" height="20" as="geometry" />
        </mxCell>
        <mxCell id="YdtJJswMT3u1q-X6oPRN-66" value="" style="sketch=0;points=[[0,0,0],[0.25,0,0],[0.5,0,0],[0.75,0,0],[1,0,0],[0,1,0],[0.25,1,0],[0.5,1,0],[0.75,1,0],[1,1,0],[0,0.25,0],[0,0.5,0],[0,0.75,0],[1,0.25,0],[1,0.5,0],[1,0.75,0]];outlineConnect=0;fontColor=#232F3E;gradientColor=#60A337;gradientDirection=north;fillColor=#277116;strokeColor=#ffffff;dashed=0;verticalLabelPosition=bottom;verticalAlign=top;align=center;html=1;fontSize=12;fontStyle=0;aspect=fixed;shape=mxgraph.aws4.resourceIcon;resIcon=mxgraph.aws4.efs_standard;" vertex="1" parent="1">
          <mxGeometry x="1133" y="538" width="20" height="20" as="geometry" />
        </mxCell>
        <mxCell id="YdtJJswMT3u1q-X6oPRN-70" value="" style="endArrow=classic;html=1;rounded=0;exitX=1;exitY=0.531;exitDx=0;exitDy=0;exitPerimeter=0;" edge="1" parent="1">
          <mxGeometry width="50" height="50" relative="1" as="geometry">
            <mxPoint x="680" y="393.44000000000005" as="sourcePoint" />
            <mxPoint x="710" y="393" as="targetPoint" />
          </mxGeometry>
        </mxCell>
        <mxCell id="YdtJJswMT3u1q-X6oPRN-71" value="" style="endArrow=classic;html=1;rounded=0;entryX=0;entryY=0.5;entryDx=0;entryDy=0;" edge="1" parent="1" target="YdtJJswMT3u1q-X6oPRN-35">
          <mxGeometry width="50" height="50" relative="1" as="geometry">
            <mxPoint x="1010" y="480" as="sourcePoint" />
            <mxPoint x="780" y="430" as="targetPoint" />
          </mxGeometry>
        </mxCell>
        <mxCell id="YdtJJswMT3u1q-X6oPRN-72" value="" style="endArrow=classic;html=1;rounded=0;entryX=0;entryY=0.5;entryDx=0;entryDy=0;" edge="1" parent="1">
          <mxGeometry width="50" height="50" relative="1" as="geometry">
            <mxPoint x="1010" y="386" as="sourcePoint" />
            <mxPoint x="1045" y="386" as="targetPoint" />
          </mxGeometry>
        </mxCell>
        <mxCell id="YdtJJswMT3u1q-X6oPRN-73" value="" style="endArrow=classic;html=1;rounded=0;entryX=0;entryY=0.5;entryDx=0;entryDy=0;" edge="1" parent="1">
          <mxGeometry width="50" height="50" relative="1" as="geometry">
            <mxPoint x="1011" y="297" as="sourcePoint" />
            <mxPoint x="1046" y="297" as="targetPoint" />
          </mxGeometry>
        </mxCell>
        <mxCell id="YdtJJswMT3u1q-X6oPRN-74" value="" style="endArrow=classic;html=1;rounded=0;exitX=0.5;exitY=0;exitDx=0;exitDy=0;" edge="1" parent="1" source="YdtJJswMT3u1q-X6oPRN-69">
          <mxGeometry width="50" height="50" relative="1" as="geometry">
            <mxPoint x="730" y="480" as="sourcePoint" />
            <mxPoint x="860" y="240" as="targetPoint" />
          </mxGeometry>
        </mxCell>
        <mxCell id="YdtJJswMT3u1q-X6oPRN-78" value="" style="endArrow=none;html=1;rounded=0;" edge="1" parent="1">
          <mxGeometry width="50" height="50" relative="1" as="geometry">
            <mxPoint x="768" y="530" as="sourcePoint" />
            <mxPoint x="768" y="510" as="targetPoint" />
          </mxGeometry>
        </mxCell>
        <mxCell id="YdtJJswMT3u1q-X6oPRN-79" value="" style="endArrow=none;html=1;rounded=0;" edge="1" parent="1">
          <mxGeometry width="50" height="50" relative="1" as="geometry">
            <mxPoint x="970" y="529" as="sourcePoint" />
            <mxPoint x="970" y="509" as="targetPoint" />
          </mxGeometry>
        </mxCell>
        <mxCell id="YdtJJswMT3u1q-X6oPRN-80" value="" style="outlineConnect=0;dashed=0;verticalLabelPosition=bottom;verticalAlign=top;align=center;html=1;shape=mxgraph.aws3.cloud_2;fillColor=#F58534;gradientColor=none;" vertex="1" parent="1">
          <mxGeometry x="1161" y="674" width="30" height="31" as="geometry" />
        </mxCell>
      </root>
    </mxGraphModel>
  </diagram>
</mxfile>
